<svg width="35" height="35" viewBox="0 0 35 35" fill="none" xmlns="http://www.w3.org/2000/svg">
<path fill-rule="evenodd" clip-rule="evenodd" d="M17.5 0C7.83502 0 0 7.83502 0 17.5C0 27.165 7.83502 35 17.5 35C27.165 35 35 27.165 35 17.5C35 7.83502 27.165 0 17.5 0ZM25.0378 13.6135H20.0946V12.1972H25.0378V13.6135ZM24.6021 14.8023C24.0073 14.5392 23.3389 14.4071 22.5958 14.4071C21.3458 14.4071 20.3305 14.798 19.5458 15.5743C18.7633 16.3528 18.3715 17.4713 18.3715 18.9298C18.3715 20.4846 18.8039 21.6085 19.6742 22.2982C20.5402 22.989 21.5422 23.3333 22.6782 23.3333C24.0534 23.3333 25.1234 22.9241 25.8873 22.1066C26.3768 21.5912 26.6534 21.0834 26.7138 20.5853H24.4364C24.3047 20.8322 24.151 21.0249 23.9765 21.1646C23.6593 21.4212 23.2456 21.55 22.7396 21.55C22.2589 21.55 21.8495 21.4439 21.5093 21.2328C20.9474 20.8939 20.6532 20.3016 20.6159 19.4582H26.8312C26.8411 18.7316 26.8169 18.1729 26.7566 17.7875C26.6534 17.1281 26.4273 16.5477 26.075 16.0475C25.6887 15.4801 25.1981 15.0643 24.6021 14.8023ZM13.741 11.6667C15.148 11.6872 16.1435 12.0911 16.7307 12.8794C17.083 13.3633 17.2597 13.9415 17.2597 14.6161C17.2597 15.3101 17.083 15.8699 16.7263 16.2922C16.5265 16.5282 16.2335 16.7448 15.8461 16.9397C16.4343 17.1519 16.8777 17.4865 17.1795 17.9445C17.4781 18.4014 17.6284 18.9579 17.6284 19.6119C17.6284 20.2865 17.4572 20.8917 17.1137 21.4266C16.8964 21.7807 16.6242 22.0795 16.2971 22.322C15.9295 22.6003 15.4959 22.7898 14.9944 22.8937C14.4928 22.9966 13.9506 23.0464 13.3645 23.0464H8.16667V11.6667H13.741Z" fill="white"/>
<path fill-rule="evenodd" clip-rule="evenodd" d="M10.466 13.6427H12.9771C13.5292 13.6427 13.9836 13.7023 14.3414 13.8203C14.754 13.9913 14.9604 14.3411 14.9604 14.8727C14.9604 15.3491 14.8034 15.6826 14.4917 15.871C14.1778 16.0594 13.7707 16.1536 13.2713 16.1536H10.466V13.6427ZM21.2657 16.7036C21.5806 16.3831 22.0262 16.2229 22.597 16.2229C23.1238 16.2229 23.5639 16.3734 23.9217 16.6755C24.2751 16.9797 24.4748 17.4215 24.5154 18.0062H20.6708C20.752 17.4583 20.9507 17.0241 21.2657 16.7036ZM13.3064 18.0365H10.466V21.0715H13.2669C13.7674 21.0715 14.1581 21.0043 14.4358 20.8712C14.9417 20.6221 15.1941 20.15 15.1941 19.4506C15.1941 18.8572 14.9505 18.4512 14.4599 18.2292C14.1855 18.1058 13.8003 18.0408 13.3064 18.0365Z" fill="white"/>
</svg>
