<svg width="36" height="35" viewBox="0 0 36 35" fill="none" xmlns="http://www.w3.org/2000/svg">
<path d="M18.1981 0.131226C8.55231 0.131226 0.73053 8.08491 0.73053 17.897C0.73053 25.7466 5.73553 32.4061 12.6759 34.7553C13.5489 34.9197 13.8694 34.3699 13.8694 33.9006C13.8694 33.477 13.8532 32.0775 13.8457 30.5929C8.98619 31.6676 7.96078 28.4968 7.96078 28.4968C7.16619 26.4432 6.02132 25.8972 6.02132 25.8972C4.43648 24.7945 6.14078 24.8172 6.14078 24.8172C7.89483 24.9422 8.81842 26.648 8.81842 26.648C10.3764 29.3641 12.9047 28.5788 13.9015 28.1249C14.0583 26.9769 14.511 26.1926 15.0105 25.7492C11.1307 25.3 7.05222 23.7766 7.05222 16.9691C7.05222 15.0295 7.73458 13.4446 8.85198 12.2005C8.67061 11.7527 8.07272 9.94601 9.02119 7.49886C9.02119 7.49886 10.488 7.02137 13.826 9.31995C15.2194 8.92632 16.7137 8.72891 18.1981 8.72214C19.6826 8.72891 21.1781 8.92632 22.574 9.31995C25.908 7.02137 27.3728 7.49886 27.3728 7.49886C28.3235 9.94601 27.7254 11.7527 27.544 12.2005C28.664 13.4446 29.3417 15.0295 29.3417 16.9691C29.3417 23.7928 25.2554 25.2953 21.3658 25.7351C21.9923 26.2864 22.5506 27.3676 22.5506 29.0251C22.5506 31.402 22.5303 33.3151 22.5303 33.9006C22.5303 34.3734 22.8447 34.9274 23.7302 34.7529C30.6668 32.4011 35.6654 25.7439 35.6654 17.897C35.6654 8.08491 27.8448 0.131226 18.1981 0.131226Z" fill="white"/>
<path d="M7.34641 25.6392C7.30794 25.7278 7.17141 25.7539 7.04703 25.6933C6.92033 25.6354 6.84917 25.5151 6.89025 25.4265C6.92785 25.3356 7.06467 25.3106 7.19108 25.3709C7.31806 25.4292 7.39037 25.5507 7.34641 25.6392Z" fill="white"/>
<path d="M8.05391 26.4418C7.97061 26.5203 7.80776 26.4839 7.69726 26.3597C7.58301 26.2358 7.5616 26.0702 7.64606 25.9905C7.73197 25.9119 7.88991 25.9487 8.00445 26.0726C8.11871 26.1979 8.14098 26.3623 8.05391 26.4418Z" fill="white"/>
<path d="M8.74265 27.465C8.63562 27.5406 8.46062 27.4697 8.35244 27.3117C8.24542 27.1537 8.24542 26.9643 8.35476 26.8884C8.46323 26.8125 8.63562 26.8807 8.74525 27.0375C8.85199 27.1979 8.85199 27.3876 8.74265 27.465Z" fill="white"/>
<path d="M9.68616 28.4535C9.59042 28.5609 9.38649 28.532 9.23724 28.3855C9.08451 28.2423 9.04199 28.039 9.13802 27.9316C9.23492 27.8239 9.44001 27.8542 9.59042 27.9995C9.74199 28.1425 9.78827 28.3473 9.68616 28.4535Z" fill="white"/>
<path d="M10.9879 29.0275C10.9456 29.1667 10.7492 29.2299 10.5514 29.1708C10.3538 29.1099 10.2245 28.9469 10.2644 28.8063C10.3055 28.6662 10.5028 28.6003 10.7021 28.6636C10.8994 28.7242 11.0289 28.886 10.9879 29.0275Z" fill="white"/>
<path d="M12.4174 29.134C12.4223 29.2805 12.2545 29.402 12.0468 29.4044C11.838 29.4094 11.6691 29.2908 11.6667 29.1466C11.6667 28.9987 11.8308 28.8783 12.0396 28.8748C12.2473 28.8707 12.4174 28.9884 12.4174 29.134Z" fill="white"/>
<path d="M13.7476 28.9036C13.7725 29.0466 13.6282 29.1934 13.4219 29.2323C13.2191 29.2702 13.0314 29.1819 13.0057 29.0401C12.9805 28.8936 13.1275 28.7468 13.3299 28.7089C13.5365 28.6724 13.7213 28.7583 13.7476 28.9036Z" fill="white"/>
</svg>
