<svg width="36" height="35" viewBox="0 0 36 35" fill="none" xmlns="http://www.w3.org/2000/svg">
<path fill-rule="evenodd" clip-rule="evenodd" d="M17.8333 0C8.16833 0 0.333313 7.83502 0.333313 17.5C0.333313 27.165 8.16833 35 17.8333 35C27.4983 35 35.3333 27.165 35.3333 17.5C35.3333 7.83502 27.4983 0 17.8333 0ZM8.73449 14.4943H12.7004V26.4101H8.73449V14.4943ZM12.9616 10.8082C12.9358 9.63988 12.1004 8.75 10.7436 8.75C9.38695 8.75 8.49998 9.63988 8.49998 10.8082C8.49998 11.9524 9.36073 12.8679 10.6922 12.8679H10.7175C12.1004 12.8679 12.9616 11.9524 12.9616 10.8082ZM22.4366 14.2145C25.0464 14.2145 27.0029 15.9179 27.0029 19.5779L27.0027 26.4101H23.037V20.0351C23.037 18.4339 22.4631 17.3412 21.0274 17.3412C19.9318 17.3412 19.2792 18.0778 18.9925 18.7893C18.8877 19.0443 18.8619 19.3995 18.8619 19.7556V26.4104H14.8956C14.8956 26.4104 14.9478 15.6127 14.8956 14.4946H18.8619V16.1824C19.3883 15.371 20.331 14.2145 22.4366 14.2145Z" fill="white"/>
</svg>
