<svg width="24" height="24" viewBox="0 0 24 24" fill="none" xmlns="http://www.w3.org/2000/svg">
<mask id="mask0_34_236" style="mask-type:alpha" maskUnits="userSpaceOnUse" x="0" y="0" width="24" height="24">
<rect width="24" height="24" fill="#D9D9D9"/>
</mask>
<g mask="url(#mask0_34_236)">
<path d="M12.4155 16.6152C13.6923 16.6152 14.7807 16.1653 15.6807 15.2653C16.5807 14.3653 17.0307 13.2768 17.0307 12C17.0307 10.7232 16.5807 9.63475 15.6807 8.73475C14.7807 7.83475 13.6923 7.38475 12.4155 7.38475C12.0796 7.38475 11.7514 7.42058 11.4307 7.49225C11.1102 7.56408 10.7961 7.66858 10.4885 7.80575C11.3175 8.18992 11.9737 8.75833 12.4572 9.511C12.9409 10.2638 13.1827 11.0935 13.1827 12C13.1827 12.9063 12.9409 13.7359 12.4572 14.4887C11.9737 15.2416 11.3175 15.8101 10.4885 16.1942C10.7961 16.3314 11.1102 16.4359 11.4307 16.5078C11.7514 16.5794 12.0796 16.6152 12.4155 16.6152ZM12 22.6077L8.85946 19.5H4.49996V15.1405L1.39221 12L4.49996 8.8595V4.5H8.85946L12 1.39225L15.1405 4.5H19.5V8.8595L22.6077 12L19.5 15.1405V19.5H15.1405L12 22.6077ZM12 20.5L14.5 18H18V14.5L20.5 12L18 9.5V6H14.5L12 3.5L9.49996 6H5.99996V9.5L3.49996 12L5.99996 14.5V18H9.49996L12 20.5Z" fill="white"/>
</g>
</svg>
